<svg xmlns="http://www.w3.org/2000/svg" width="990" height="189" viewBox="0 0 989.58 188.94"><defs><style>.a{fill:#2366d1;}.b{fill:#609dff;}.c{fill:#a4c7ff;}.d{fill:#333;}</style></defs><title>duinomaker_logo</title><path class="a" d="M81.82,94.47l81.81,47.24L81.82,188.94,0,141.71Z"/><path class="b" d="M81.82,47.24l81.81,47.23L81.82,141.71,0,94.47Z"/><path class="c" d="M81.82,0l81.81,47.24L81.82,94.47,0,47.24Z"/><path class="d" d="M267.76,39.59l13.49-2.32V147.61q-4.65,1.3-11.89,2.61a95.09,95.09,0,0,1-16.68,1.31A42.2,42.2,0,0,1,237,148.77a33.48,33.48,0,0,1-11.89-7.83,34.56,34.56,0,0,1-7.61-12.4,47.46,47.46,0,0,1-2.68-16.45,53.81,53.81,0,0,1,2.25-16,35.48,35.48,0,0,1,6.59-12.47,30,30,0,0,1,10.66-8.12,34,34,0,0,1,14.43-2.9,35,35,0,0,1,11.53,1.74,36.39,36.39,0,0,1,7.46,3.33Zm0,50.75a27.51,27.51,0,0,0-7.1-3.92,26.92,26.92,0,0,0-10.15-1.88,21.58,21.58,0,0,0-9.93,2.1,18.1,18.1,0,0,0-6.75,5.8,24.53,24.53,0,0,0-3.77,8.77,49.12,49.12,0,0,0-1.16,10.88q0,13.18,6.53,20.37t17.4,7.18a70.89,70.89,0,0,0,9.21-.51,42.74,42.74,0,0,0,5.72-1.09Z"/><path class="d" d="M364.48,147.61q-4.65,1.17-12.25,2.47a105,105,0,0,1-17.62,1.3A37.76,37.76,0,0,1,320,148.85a23.82,23.82,0,0,1-9.57-7.18,29.48,29.48,0,0,1-5.22-10.95,57.4,57.4,0,0,1-1.59-14V74.39H317.1v39.44q0,13.77,4.35,19.72t14.65,5.94c1.45,0,2.95-.05,4.49-.14s3-.22,4.35-.37,2.59-.29,3.7-.43A10.65,10.65,0,0,0,351,138V74.39h13.49Z"/><path class="d" d="M394.35,60.76a8.65,8.65,0,0,1-6.17-2.4,8.43,8.43,0,0,1-2.53-6.45,8.43,8.43,0,0,1,2.53-6.45,9.16,9.16,0,0,1,12.33,0,8.48,8.48,0,0,1,2.54,6.45,8.44,8.44,0,0,1-2.54,6.45A8.65,8.65,0,0,1,394.35,60.76Zm6.81,89H387.68V74.39h13.48Z"/><path class="d" d="M424.36,76.56q4.63-1.16,12.32-2.46a105.91,105.91,0,0,1,17.7-1.31q9,0,14.93,2.54a23.48,23.48,0,0,1,9.5,7.1,27.65,27.65,0,0,1,5,10.95,63.37,63.37,0,0,1,1.45,14.07v42.34H471.77V110.35a64.08,64.08,0,0,0-.94-11.89,20,20,0,0,0-3.12-8A12.37,12.37,0,0,0,461.92,86a25.48,25.48,0,0,0-9-1.38c-1.45,0-2.95,0-4.49.15s-3,.21-4.42.36-2.66.31-3.77.51l-2.4.43v63.66H424.36Z"/><path class="d" d="M574.14,112.09a47.73,47.73,0,0,1-2.61,16.24,37.2,37.2,0,0,1-7.32,12.47,32.31,32.31,0,0,1-11.24,8,37.21,37.21,0,0,1-28.42,0,32.18,32.18,0,0,1-11.23-8A37,37,0,0,1,506,128.33a47.73,47.73,0,0,1-2.61-16.24A47.82,47.82,0,0,1,506,95.92a36.94,36.94,0,0,1,7.33-12.54,32.05,32.05,0,0,1,11.23-8,37.12,37.12,0,0,1,28.42,0,32.09,32.09,0,0,1,11.24,8,37.17,37.17,0,0,1,7.32,12.54A47.81,47.81,0,0,1,574.14,112.09Zm-14.06,0q0-12.77-5.73-20.23t-15.59-7.47q-9.85,0-15.58,7.47t-5.73,20.23q0,12.76,5.73,20.22t15.58,7.47q9.87,0,15.59-7.47T560.08,112.09Z"/><path class="d" d="M593.14,76.56q4.64-1.16,12.25-2.46A104.84,104.84,0,0,1,623,72.79a33,33,0,0,1,12.18,2,21.31,21.31,0,0,1,8.26,5.73c.68-.49,1.74-1.16,3.19-2A34.57,34.57,0,0,1,652,75.91a57,57,0,0,1,7.1-2.18,36.09,36.09,0,0,1,8.41-.94q8.7,0,14.21,2.54a20.38,20.38,0,0,1,8.63,7.18,27.89,27.89,0,0,1,4.21,11,83.21,83.21,0,0,1,1.08,13.92v42.34H682.17V110.35a86.06,86.06,0,0,0-.65-11.46,22.32,22.32,0,0,0-2.47-8,11.35,11.35,0,0,0-4.93-4.72,18.32,18.32,0,0,0-8-1.52,30,30,0,0,0-11.23,1.81,21.88,21.88,0,0,0-6,3.27A49.67,49.67,0,0,1,650.56,98a74.37,74.37,0,0,1,.58,9.43v42.34H637.65V110.35a78.48,78.48,0,0,0-.72-11.46,23,23,0,0,0-2.54-8,11.35,11.35,0,0,0-4.93-4.72,18.2,18.2,0,0,0-7.9-1.52q-2,0-4.35.15c-1.55.09-3,.21-4.42.36s-2.69.31-3.85.51-1.93.34-2.32.43v63.66H593.14Z"/><path class="d" d="M742.34,72.5A38.92,38.92,0,0,1,756,74.6a22.24,22.24,0,0,1,9,6,22.63,22.63,0,0,1,4.86,9.13,44.25,44.25,0,0,1,1.45,11.68v47.12l-4.86.8q-3.12.51-7,.94c-2.59.29-5.4.53-8.45.73s-6.07.36-9.06.36a49.46,49.46,0,0,1-11.75-1.3,26.22,26.22,0,0,1-9.28-4.14,18.9,18.9,0,0,1-6.09-7.46,26.29,26.29,0,0,1-2.17-11.17,21.55,21.55,0,0,1,2.53-10.73,20.29,20.29,0,0,1,6.89-7.25,31.92,31.92,0,0,1,10.15-4.06A55.4,55.4,0,0,1,744.4,104c1.35,0,2.76.07,4.21.21s2.82.34,4.13.58,2.44.46,3.41.66,1.64.34,2,.43v-3.77a30.55,30.55,0,0,0-.73-6.6,15.16,15.16,0,0,0-2.61-5.8,13.28,13.28,0,0,0-5.15-4.06,20.19,20.19,0,0,0-8.48-1.52,64.26,64.26,0,0,0-11.67.94A41.54,41.54,0,0,0,722,87l-1.59-11.16a40.93,40.93,0,0,1,8.7-2.25A74.29,74.29,0,0,1,742.34,72.5Zm1.16,67.57q4.79,0,8.48-.22a37.74,37.74,0,0,0,6.17-.79V116.58a17.57,17.57,0,0,0-4.72-1.23,52.24,52.24,0,0,0-7.9-.51,51.51,51.51,0,0,0-6.45.44,20,20,0,0,0-6.24,1.81,13.47,13.47,0,0,0-4.71,3.77,9.9,9.9,0,0,0-1.88,6.31q0,7.24,4.64,10.07T743.5,140.07Z"/><path class="d" d="M820.93,108.32a91.25,91.25,0,0,1,9.21,8.26q4.86,4.94,9.57,10.66t8.92,11.6a128.81,128.81,0,0,1,7.1,10.95h-15.8a119.14,119.14,0,0,0-7-10.37q-4-5.29-8.33-10.15a116.38,116.38,0,0,0-8.85-8.92,80,80,0,0,0-8.55-6.81v36.25H793.67V39.59l13.49-2.32V106l7.68-7.69q4.2-4.2,8.27-8.55t7.68-8.34q3.63-4,6.24-7h15.8q-3.33,3.61-7.25,8t-8.12,8.77q-4.2,4.43-8.48,8.85Z"/><path class="d" d="M861.38,112.23a48,48,0,0,1,2.91-17.47A36.49,36.49,0,0,1,872,82.36,31.27,31.27,0,0,1,883,75a34.25,34.25,0,0,1,12.76-2.47Q911,72.5,919.1,82t8.11,28.93v2.25a19.41,19.41,0,0,1-.14,2.53H875.45q.87,11.75,6.82,17.84t18.56,6.09a48.89,48.89,0,0,0,12-1.24,41.76,41.76,0,0,0,7.32-2.39L922,147.32a40.19,40.19,0,0,1-8.63,2.76,61.59,61.59,0,0,1-14,1.45,44.49,44.49,0,0,1-17-3,31.67,31.67,0,0,1-11.82-8.19,33.31,33.31,0,0,1-6.89-12.4A52.59,52.59,0,0,1,861.38,112.23Zm51.77-7.39q.15-9.14-4.57-15t-13-5.87a17.77,17.77,0,0,0-8.2,1.81,19.5,19.5,0,0,0-6,4.71,21.92,21.92,0,0,0-3.85,6.67,32.73,32.73,0,0,0-1.81,7.69Z"/><path class="d" d="M974.48,72.79c1.16,0,2.49.07,4,.22s3,.34,4.42.58,2.78.48,4,.72a24.37,24.37,0,0,1,2.68.66l-2.32,11.74A47.86,47.86,0,0,0,982,85.33a46.53,46.53,0,0,0-9.5-.79,35.27,35.27,0,0,0-7.46.79c-2.47.54-4.09.9-4.86,1.09v63.37H946.64V77.58a92.57,92.57,0,0,1,11.89-3.27A76.92,76.92,0,0,1,974.48,72.79Z"/></svg>